<?xml version="1.0" standalone="no"?>
<!DOCTYPE svg PUBLIC "-//W3C//DTD SVG 20010904//EN"
 "http://www.w3.org/TR/2001/REC-SVG-20010904/DTD/svg10.dtd">
<svg version="1.0" xmlns="http://www.w3.org/2000/svg"
 width="1042.000000pt" height="260.000000pt" viewBox="0 0 1042.000000 260.000000"
 preserveAspectRatio="xMidYMid meet">
<metadata>
Created by potrace 1.16, written by Peter Selinger 2001-2019
</metadata>
<g transform="translate(0.000000,260.000000) scale(0.100000,-0.100000)"
fill="#000000" stroke="none">
<path d="M780 2121 c-321 -71 -571 -303 -673 -626 -141 -447 75 -948 489
-1136 130 -59 204 -74 369 -73 133 1 160 4 240 28 354 107 605 414 647 790 52
459 -227 882 -664 1006 -107 31 -296 36 -408 11z m735 -258 c-3 -32 -19 -231
-35 -442 -16 -211 -32 -386 -34 -388 -3 -3 -55 36 -117 87 -107 87 -113 90
-129 73 -10 -10 -160 -194 -334 -410 l-317 -392 -52 31 c-53 32 -257 228 -257
247 0 6 144 189 321 406 176 218 319 400 317 404 -2 5 -52 48 -111 96 -60 48
-106 89 -103 92 6 7 824 251 844 252 10 1 12 -13 7 -56z"/>
<path d="M4740 1335 l0 -805 140 0 140 0 0 313 c1 423 16 525 86 587 69 60
154 30 185 -66 9 -28 14 -150 16 -437 l4 -397 140 0 139 0 0 426 c0 469 -4
513 -60 611 -53 93 -131 133 -257 133 -108 0 -168 -30 -228 -114 l-30 -42 4
298 3 298 -141 0 -141 0 0 -805z"/>
<path d="M3356 2120 c-66 -21 -104 -94 -91 -175 12 -79 60 -116 150 -116 102
0 150 46 150 146 0 66 -17 103 -59 130 -29 19 -111 28 -150 15z"/>
<path d="M6170 2044 c-111 -30 -215 -115 -281 -229 -39 -67 -84 -211 -99 -313
-17 -115 -8 -434 14 -527 80 -326 258 -479 541 -462 82 5 169 27 224 56 20 11
21 20 21 141 0 72 -2 130 -4 130 -2 0 -35 -14 -72 -32 -57 -27 -83 -33 -154
-35 -74 -3 -90 -1 -125 19 -118 69 -175 263 -162 553 12 261 85 422 207 455
55 15 102 5 188 -41 73 -39 73 -39 81 -16 5 12 25 62 45 112 20 49 34 95 32
102 -8 19 -120 72 -188 88 -79 19 -197 18 -268 -1z"/>
<path d="M2100 1285 l0 -755 145 0 145 0 0 330 0 330 180 0 180 0 0 -330 0
-330 140 0 140 0 0 755 0 755 -140 0 -140 0 0 -300 0 -300 -180 0 -180 0 0
300 0 300 -145 0 -145 0 0 -755z"/>
<path d="M3984 1684 c-158 -48 -242 -195 -231 -404 6 -118 32 -191 92 -258
l44 -49 -30 -29 c-53 -50 -72 -91 -73 -153 -1 -65 23 -114 71 -147 l30 -20
-54 -28 c-58 -31 -92 -66 -126 -130 -16 -32 -21 -58 -21 -121 0 -101 27 -169
91 -225 71 -62 136 -82 283 -87 265 -10 429 66 508 235 25 52 27 68 27 177 0
112 -2 124 -29 178 -30 63 -82 109 -145 128 -20 6 -112 14 -204 18 -163 6
-169 7 -189 30 -22 29 -18 65 13 96 16 17 34 20 108 21 96 2 182 29 239 75 41
33 87 104 107 163 21 64 21 225 1 284 -17 48 -21 44 62 62 l52 12 0 83 0 83
-187 6 c-104 4 -233 8 -288 11 -72 3 -114 0 -151 -11z m206 -202 c36 -37 55
-122 46 -215 -7 -73 -16 -98 -49 -134 -45 -50 -127 -16 -148 60 -17 63 -13
195 6 245 31 76 93 95 145 44z m106 -980 c47 -25 57 -127 19 -185 -29 -45
-112 -78 -197 -79 -86 -1 -129 17 -158 65 -37 61 -18 156 40 195 33 23 42 24
155 20 66 -2 130 -9 141 -16z"/>
<path d="M8234 1676 c-40 -25 -81 -74 -105 -128 -14 -31 -29 -37 -29 -11 0 9
-5 45 -11 80 l-11 63 -119 0 -119 0 0 -575 0 -575 145 0 144 0 3 363 3 362 26
56 c38 80 74 103 171 108 l76 3 13 119 c7 66 16 114 20 107 3 -7 71 -262 150
-566 l144 -552 174 2 174 3 143 545 c79 300 146 557 149 573 l7 27 -146 0
c-129 0 -145 -2 -150 -17 -14 -47 -140 -641 -172 -808 -6 -37 -8 -31 -24 70
-14 86 -125 606 -156 730 -6 24 -8 24 -152 29 -81 3 -183 8 -227 11 -73 5 -84
3 -121 -19z"/>
<path d="M9739 1684 c-100 -35 -195 -135 -240 -253 -49 -130 -65 -376 -33
-529 51 -249 217 -392 455 -392 77 0 198 25 258 53 l46 22 3 118 c1 64 1 117
-1 117 -2 0 -33 -13 -68 -29 -126 -56 -219 -64 -297 -25 -41 21 -59 37 -82 78
-16 28 -32 71 -35 96 -3 25 -8 55 -11 68 l-4 22 275 0 275 0 0 128 c0 153 -17
242 -65 339 -39 79 -96 137 -173 174 -62 30 -232 37 -303 13z m189 -220 c34
-24 62 -88 69 -159 l6 -65 -133 0 -133 0 7 55 c8 74 32 130 68 160 34 29 82
33 116 9z"/>
<path d="M3270 1105 l0 -575 145 0 145 0 0 575 0 575 -145 0 -145 0 0 -575z"/>
<path d="M6770 1248 c0 -465 4 -501 52 -595 95 -182 391 -191 507 -16 32 49
30 51 52 -49 l12 -58 114 0 113 0 0 575 0 575 -139 0 -139 0 -5 -357 c-5 -374
-12 -432 -53 -504 -25 -44 -78 -72 -122 -65 -44 7 -61 21 -86 76 -20 43 -21
64 -24 448 l-3 402 -140 0 -139 0 0 -432z"/>
</g>
</svg>
