<?xml version="1.0" encoding="utf-8"?>
<svg viewBox="0 0 500 500" xmlns="http://www.w3.org/2000/svg">
  <defs>
    <clipPath id="clip-0">
      <path d="M 147.373 238.995 C 147.373 263.755 127.302 283.827 102.542 283.827 C 95.166 283.827 88.204 282.045 82.067 278.888 L 115.268 239.316 L 127.215 248.65 L 130.75 204.167 L 86.399 216.759 L 98.345 226.094 L 65.875 264.794 C 60.732 257.499 57.711 248.599 57.711 238.995 C 57.711 214.236 77.783 194.165 102.542 194.165 C 127.302 194.165 147.373 214.236 147.373 238.995 Z M 62.782 301.873 L 82.067 278.888 C 75.595 275.56 70.039 270.703 65.875 264.794 L 45.859 288.65 Z" style="fill: rgb(0, 0, 255);"/>
    </clipPath>
  </defs>
  <circle style="clip-path: url(#clip-0);" cx="102.542" cy="238.995" r="44.703" transform="matrix(5.290473, 0, 0, 5.482212, -291.668091, -1059.411133)"/>
</svg>